<?xml version="1.0" encoding="UTF-8" standalone="no"?>
<!DOCTYPE svg PUBLIC "-//W3C//DTD SVG 1.1//EN"
 "http://www.w3.org/Graphics/SVG/1.1/DTD/svg11.dtd">
<!-- Generated by graphviz version 14.1.2 (20260124.0452)
 -->
<!-- Title: G Pages: 1 -->
<svg width="2267pt" height="947pt"
 viewBox="0.00 0.00 2267.00 947.00" xmlns="http://www.w3.org/2000/svg" xmlns:xlink="http://www.w3.org/1999/xlink">
<g id="graph0" class="graph" transform="scale(1 1) rotate(0) translate(4 943)">
<title>G</title>
<polygon fill="white" stroke="none" points="-4,4 -4,-943 2263,-943 2263,4 -4,4"/>
<!-- data.aws_availability_zones.available -->
<g id="node1" class="node">
<title>data.aws_availability_zones.available</title>
<polygon fill="none" stroke="black" points="2254.5,-36 2014.25,-36 2014.25,0 2254.5,0 2254.5,-36"/>
<text xml:space="preserve" text-anchor="middle" x="2134.38" y="-12.2" font-family="sans-serif" font-size="14.00">data.aws_availability_zones.available</text>
</g>
<!-- data.aws_caller_identity.current -->
<g id="node2" class="node">
<title>data.aws_caller_identity.current</title>
<polygon fill="none" stroke="black" points="2236.88,-90 2031.88,-90 2031.88,-54 2236.88,-54 2236.88,-90"/>
<text xml:space="preserve" text-anchor="middle" x="2134.38" y="-66.2" font-family="sans-serif" font-size="14.00">data.aws_caller_identity.current</text>
</g>
<!-- data.aws_iam_policy.sm_studio_app_permissions_jupyterlab -->
<g id="node3" class="node">
<title>data.aws_iam_policy.sm_studio_app_permissions_jupyterlab</title>
<polygon fill="none" stroke="black" points="383.5,-939 0,-939 0,-903 383.5,-903 383.5,-939"/>
<text xml:space="preserve" text-anchor="middle" x="191.75" y="-915.2" font-family="sans-serif" font-size="14.00">data.aws_iam_policy.sm_studio_app_permissions_jupyterlab</text>
</g>
<!-- data.aws_region.current -->
<g id="node4" class="node">
<title>data.aws_region.current</title>
<polygon fill="none" stroke="black" points="2214.75,-403 2054,-403 2054,-367 2214.75,-367 2214.75,-403"/>
<text xml:space="preserve" text-anchor="middle" x="2134.38" y="-379.2" font-family="sans-serif" font-size="14.00">data.aws_region.current</text>
</g>
<!-- aws_efs_access_point.shared_repo_ap -->
<g id="node5" class="node">
<title>aws_efs_access_point.shared_repo_ap</title>
<polygon fill="none" stroke="black" points="1504.38,-643 1250.62,-643 1250.62,-607 1504.38,-607 1504.38,-643"/>
<text xml:space="preserve" text-anchor="middle" x="1377.5" y="-619.2" font-family="sans-serif" font-size="14.00">aws_efs_access_point.shared_repo_ap</text>
</g>
<!-- aws_efs_file_system.shared_efs -->
<g id="node6" class="node">
<title>aws_efs_file_system.shared_efs</title>
<polygon fill="none" stroke="black" points="1203,-589 991.25,-589 991.25,-553 1203,-553 1203,-589"/>
<text xml:space="preserve" text-anchor="middle" x="1097.12" y="-565.2" font-family="sans-serif" font-size="14.00">aws_efs_file_system.shared_efs</text>
</g>
<!-- aws_efs_access_point.shared_repo_ap&#45;&gt;aws_efs_file_system.shared_efs -->
<g id="edge1" class="edge">
<title>aws_efs_access_point.shared_repo_ap&#45;&gt;aws_efs_file_system.shared_efs</title>
<path fill="none" stroke="black" d="M1281.48,-606.57C1256.64,-601.75 1229.72,-596.53 1204.34,-591.6"/>
<polygon fill="black" stroke="black" points="1205.16,-588.2 1194.68,-589.73 1203.83,-595.07 1205.16,-588.2"/>
</g>
<!-- aws_kms_key.efs_kms -->
<g id="node27" class="node">
<title>aws_kms_key.efs_kms</title>
<polygon fill="none" stroke="black" points="761.38,-669 605.88,-669 605.88,-633 761.38,-633 761.38,-669"/>
<text xml:space="preserve" text-anchor="middle" x="683.62" y="-645.2" font-family="sans-serif" font-size="14.00">aws_kms_key.efs_kms</text>
</g>
<!-- aws_efs_file_system.shared_efs&#45;&gt;aws_kms_key.efs_kms -->
<g id="edge2" class="edge">
<title>aws_efs_file_system.shared_efs&#45;&gt;aws_kms_key.efs_kms</title>
<path fill="none" stroke="black" d="M1053.12,-589.47C1023.93,-601.23 984.17,-615.75 947.75,-624 890.39,-636.99 824.57,-643.74 773.11,-647.24"/>
<polygon fill="black" stroke="black" points="772.96,-643.74 763.2,-647.88 773.41,-650.73 772.96,-643.74"/>
</g>
<!-- aws_efs_mount_target.shared_efs_mt_1 -->
<g id="node7" class="node">
<title>aws_efs_mount_target.shared_efs_mt_1</title>
<polygon fill="none" stroke="black" points="1508.5,-535 1246.5,-535 1246.5,-499 1508.5,-499 1508.5,-535"/>
<text xml:space="preserve" text-anchor="middle" x="1377.5" y="-511.2" font-family="sans-serif" font-size="14.00">aws_efs_mount_target.shared_efs_mt_1</text>
</g>
<!-- aws_efs_mount_target.shared_efs_mt_1&#45;&gt;aws_efs_file_system.shared_efs -->
<g id="edge3" class="edge">
<title>aws_efs_mount_target.shared_efs_mt_1&#45;&gt;aws_efs_file_system.shared_efs</title>
<path fill="none" stroke="black" d="M1281.48,-535.43C1256.64,-540.25 1229.72,-545.47 1204.34,-550.4"/>
<polygon fill="black" stroke="black" points="1203.83,-546.93 1194.68,-552.27 1205.16,-553.8 1203.83,-546.93"/>
</g>
<!-- aws_security_group.efs_nfs_sg -->
<g id="node37" class="node">
<title>aws_security_group.efs_nfs_sg</title>
<polygon fill="none" stroke="black" points="1199.62,-481 994.62,-481 994.62,-445 1199.62,-445 1199.62,-481"/>
<text xml:space="preserve" text-anchor="middle" x="1097.12" y="-457.2" font-family="sans-serif" font-size="14.00">aws_security_group.efs_nfs_sg</text>
</g>
<!-- aws_efs_mount_target.shared_efs_mt_1&#45;&gt;aws_security_group.efs_nfs_sg -->
<g id="edge4" class="edge">
<title>aws_efs_mount_target.shared_efs_mt_1&#45;&gt;aws_security_group.efs_nfs_sg</title>
<path fill="none" stroke="black" d="M1281.48,-498.57C1256.64,-493.75 1229.72,-488.53 1204.34,-483.6"/>
<polygon fill="black" stroke="black" points="1205.16,-480.2 1194.68,-481.73 1203.83,-487.07 1205.16,-480.2"/>
</g>
<!-- aws_subnet.private_subnet_1 -->
<g id="node40" class="node">
<title>aws_subnet.private_subnet_1</title>
<polygon fill="none" stroke="black" points="1194.75,-389 999.5,-389 999.5,-353 1194.75,-353 1194.75,-389"/>
<text xml:space="preserve" text-anchor="middle" x="1097.12" y="-365.2" font-family="sans-serif" font-size="14.00">aws_subnet.private_subnet_1</text>
</g>
<!-- aws_efs_mount_target.shared_efs_mt_1&#45;&gt;aws_subnet.private_subnet_1 -->
<g id="edge5" class="edge">
<title>aws_efs_mount_target.shared_efs_mt_1&#45;&gt;aws_subnet.private_subnet_1</title>
<path fill="none" stroke="black" d="M1261.64,-498.6C1256.36,-496.08 1251.28,-493.22 1246.5,-490 1222.59,-473.86 1231.53,-455.74 1210.5,-436 1192.92,-419.51 1170.43,-405.45 1150.18,-394.68"/>
<polygon fill="black" stroke="black" points="1151.98,-391.67 1141.49,-390.19 1148.77,-397.89 1151.98,-391.67"/>
</g>
<!-- aws_efs_mount_target.shared_efs_mt_2 -->
<g id="node8" class="node">
<title>aws_efs_mount_target.shared_efs_mt_2</title>
<polygon fill="none" stroke="black" points="1508.5,-481 1246.5,-481 1246.5,-445 1508.5,-445 1508.5,-481"/>
<text xml:space="preserve" text-anchor="middle" x="1377.5" y="-457.2" font-family="sans-serif" font-size="14.00">aws_efs_mount_target.shared_efs_mt_2</text>
</g>
<!-- aws_efs_mount_target.shared_efs_mt_2&#45;&gt;aws_efs_file_system.shared_efs -->
<g id="edge6" class="edge">
<title>aws_efs_mount_target.shared_efs_mt_2&#45;&gt;aws_efs_file_system.shared_efs</title>
<path fill="none" stroke="black" d="M1273.51,-481.43C1264.28,-483.97 1255.15,-486.82 1246.5,-490 1206.83,-504.58 1164.83,-528.39 1135.69,-546.43"/>
<polygon fill="black" stroke="black" points="1133.83,-543.47 1127.22,-551.75 1137.55,-549.4 1133.83,-543.47"/>
</g>
<!-- aws_efs_mount_target.shared_efs_mt_2&#45;&gt;aws_security_group.efs_nfs_sg -->
<g id="edge7" class="edge">
<title>aws_efs_mount_target.shared_efs_mt_2&#45;&gt;aws_security_group.efs_nfs_sg</title>
<path fill="none" stroke="black" d="M1246.28,-463C1234.6,-463 1222.85,-463 1211.33,-463"/>
<polygon fill="black" stroke="black" points="1211.43,-459.5 1201.43,-463 1211.43,-466.5 1211.43,-459.5"/>
</g>
<!-- aws_subnet.private_subnet_2 -->
<g id="node41" class="node">
<title>aws_subnet.private_subnet_2</title>
<polygon fill="none" stroke="black" points="1194.75,-335 999.5,-335 999.5,-299 1194.75,-299 1194.75,-335"/>
<text xml:space="preserve" text-anchor="middle" x="1097.12" y="-311.2" font-family="sans-serif" font-size="14.00">aws_subnet.private_subnet_2</text>
</g>
<!-- aws_efs_mount_target.shared_efs_mt_2&#45;&gt;aws_subnet.private_subnet_2 -->
<g id="edge8" class="edge">
<title>aws_efs_mount_target.shared_efs_mt_2&#45;&gt;aws_subnet.private_subnet_2</title>
<path fill="none" stroke="black" d="M1324.95,-444.56C1299.43,-433.7 1269.29,-418.12 1246.5,-398 1224.88,-378.91 1234.15,-360.51 1210.5,-344 1208.71,-342.75 1206.87,-341.56 1204.99,-340.42"/>
<polygon fill="black" stroke="black" points="1207.04,-337.55 1196.58,-335.9 1203.73,-343.72 1207.04,-337.55"/>
</g>
<!-- aws_eip.nat_1 -->
<g id="node9" class="node">
<title>aws_eip.nat_1</title>
<polygon fill="none" stroke="black" points="1148.62,-119 1045.62,-119 1045.62,-83 1148.62,-83 1148.62,-119"/>
<text xml:space="preserve" text-anchor="middle" x="1097.12" y="-95.2" font-family="sans-serif" font-size="14.00">aws_eip.nat_1</text>
</g>
<!-- aws_internet_gateway.main -->
<g id="node25" class="node">
<title>aws_internet_gateway.main</title>
<polygon fill="none" stroke="black" points="775.25,-173 592,-173 592,-137 775.25,-137 775.25,-173"/>
<text xml:space="preserve" text-anchor="middle" x="683.62" y="-149.2" font-family="sans-serif" font-size="14.00">aws_internet_gateway.main</text>
</g>
<!-- aws_eip.nat_1&#45;&gt;aws_internet_gateway.main -->
<g id="edge9" class="edge">
<title>aws_eip.nat_1&#45;&gt;aws_internet_gateway.main</title>
<path fill="none" stroke="black" d="M1045.25,-107.68C981.07,-116.1 869.17,-130.78 787,-141.57"/>
<polygon fill="black" stroke="black" points="786.57,-138.09 777.11,-142.86 787.48,-145.03 786.57,-138.09"/>
</g>
<!-- aws_iam_policy.jupyterlab_common_job_management -->
<g id="node10" class="node">
<title>aws_iam_policy.jupyterlab_common_job_management</title>
<polygon fill="none" stroke="black" points="365.5,-561 18,-561 18,-525 365.5,-525 365.5,-561"/>
<text xml:space="preserve" text-anchor="middle" x="191.75" y="-537.2" font-family="sans-serif" font-size="14.00">aws_iam_policy.jupyterlab_common_job_management</text>
</g>
<!-- aws_iam_policy.jupyterlab_efs_access -->
<g id="node11" class="node">
<title>aws_iam_policy.jupyterlab_efs_access</title>
<polygon fill="none" stroke="black" points="1501.75,-589 1253.25,-589 1253.25,-553 1501.75,-553 1501.75,-589"/>
<text xml:space="preserve" text-anchor="middle" x="1377.5" y="-565.2" font-family="sans-serif" font-size="14.00">aws_iam_policy.jupyterlab_efs_access</text>
</g>
<!-- aws_iam_policy.jupyterlab_efs_access&#45;&gt;aws_efs_file_system.shared_efs -->
<g id="edge10" class="edge">
<title>aws_iam_policy.jupyterlab_efs_access&#45;&gt;aws_efs_file_system.shared_efs</title>
<path fill="none" stroke="black" d="M1252.78,-571C1240.11,-571 1227.26,-571 1214.67,-571"/>
<polygon fill="black" stroke="black" points="1214.7,-567.5 1204.7,-571 1214.7,-574.5 1214.7,-567.5"/>
</g>
<!-- aws_iam_policy.jupyterlab_license_cloudwatch -->
<g id="node12" class="node">
<title>aws_iam_policy.jupyterlab_license_cloudwatch</title>
<polygon fill="none" stroke="black" points="340.75,-507 42.75,-507 42.75,-471 340.75,-471 340.75,-507"/>
<text xml:space="preserve" text-anchor="middle" x="191.75" y="-483.2" font-family="sans-serif" font-size="14.00">aws_iam_policy.jupyterlab_license_cloudwatch</text>
</g>
<!-- aws_iam_policy.jupyterlab_s3_access -->
<g id="node13" class="node">
<title>aws_iam_policy.jupyterlab_s3_access</title>
<polygon fill="none" stroke="black" points="314.12,-453 69.38,-453 69.38,-417 314.12,-417 314.12,-453"/>
<text xml:space="preserve" text-anchor="middle" x="191.75" y="-429.2" font-family="sans-serif" font-size="14.00">aws_iam_policy.jupyterlab_s3_access</text>
</g>
<!-- aws_iam_role.sagemaker_jupyterlab_execution_role -->
<g id="node14" class="node">
<title>aws_iam_role.sagemaker_jupyterlab_execution_role</title>
<polygon fill="none" stroke="black" points="358,-696 25.5,-696 25.5,-660 358,-660 358,-696"/>
<text xml:space="preserve" text-anchor="middle" x="191.75" y="-672.2" font-family="sans-serif" font-size="14.00">aws_iam_role.sagemaker_jupyterlab_execution_role</text>
</g>
<!-- aws_iam_role_policy_attachment.canvas_ai_services_attachment -->
<g id="node15" class="node">
<title>aws_iam_role_policy_attachment.canvas_ai_services_attachment</title>
<polygon fill="none" stroke="black" points="890.38,-777 476.88,-777 476.88,-741 890.38,-741 890.38,-777"/>
<text xml:space="preserve" text-anchor="middle" x="683.62" y="-753.2" font-family="sans-serif" font-size="14.00">aws_iam_role_policy_attachment.canvas_ai_services_attachment</text>
</g>
<!-- aws_iam_role_policy_attachment.canvas_ai_services_attachment&#45;&gt;aws_iam_role.sagemaker_jupyterlab_execution_role -->
<g id="edge11" class="edge">
<title>aws_iam_role_policy_attachment.canvas_ai_services_attachment&#45;&gt;aws_iam_role.sagemaker_jupyterlab_execution_role</title>
<path fill="none" stroke="black" d="M476.86,-740.52C457.43,-737.98 438.06,-735.15 419.5,-732 369.58,-723.53 314.3,-710.44 270.82,-699.27"/>
<polygon fill="black" stroke="black" points="271.77,-695.9 261.21,-696.78 270.01,-702.68 271.77,-695.9"/>
</g>
<!-- aws_iam_role_policy_attachment.canvas_dataprep_attachment -->
<g id="node16" class="node">
<title>aws_iam_role_policy_attachment.canvas_dataprep_attachment</title>
<polygon fill="none" stroke="black" points="883.25,-723 484,-723 484,-687 883.25,-687 883.25,-723"/>
<text xml:space="preserve" text-anchor="middle" x="683.62" y="-699.2" font-family="sans-serif" font-size="14.00">aws_iam_role_policy_attachment.canvas_dataprep_attachment</text>
</g>
<!-- aws_iam_role_policy_attachment.canvas_dataprep_attachment&#45;&gt;aws_iam_role.sagemaker_jupyterlab_execution_role -->
<g id="edge12" class="edge">
<title>aws_iam_role_policy_attachment.canvas_dataprep_attachment&#45;&gt;aws_iam_role.sagemaker_jupyterlab_execution_role</title>
<path fill="none" stroke="black" d="M483.73,-694.04C446.01,-691.96 406.79,-689.8 369.81,-687.76"/>
<polygon fill="black" stroke="black" points="370.1,-684.27 359.92,-687.21 369.71,-691.26 370.1,-684.27"/>
</g>
<!-- aws_iam_role_policy_attachment.canvas_directdeploy_attachment -->
<g id="node17" class="node">
<title>aws_iam_role_policy_attachment.canvas_directdeploy_attachment</title>
<polygon fill="none" stroke="black" points="893,-615 474.25,-615 474.25,-579 893,-579 893,-615"/>
<text xml:space="preserve" text-anchor="middle" x="683.62" y="-591.2" font-family="sans-serif" font-size="14.00">aws_iam_role_policy_attachment.canvas_directdeploy_attachment</text>
</g>
<!-- aws_iam_role_policy_attachment.canvas_directdeploy_attachment&#45;&gt;aws_iam_role.sagemaker_jupyterlab_execution_role -->
<g id="edge13" class="edge">
<title>aws_iam_role_policy_attachment.canvas_directdeploy_attachment&#45;&gt;aws_iam_role.sagemaker_jupyterlab_execution_role</title>
<path fill="none" stroke="black" d="M476.86,-615.48C457.43,-618.02 438.06,-620.85 419.5,-624 369.58,-632.47 314.3,-645.56 270.82,-656.73"/>
<polygon fill="black" stroke="black" points="270.01,-653.32 261.21,-659.22 271.77,-660.1 270.01,-653.32"/>
</g>
<!-- aws_iam_role_policy_attachment.canvas_fullaccess_attachment -->
<g id="node18" class="node">
<title>aws_iam_role_policy_attachment.canvas_fullaccess_attachment</title>
<polygon fill="none" stroke="black" points="886.25,-885 481,-885 481,-849 886.25,-849 886.25,-885"/>
<text xml:space="preserve" text-anchor="middle" x="683.62" y="-861.2" font-family="sans-serif" font-size="14.00">aws_iam_role_policy_attachment.canvas_fullaccess_attachment</text>
</g>
<!-- aws_iam_role_policy_attachment.canvas_fullaccess_attachment&#45;&gt;aws_iam_role.sagemaker_jupyterlab_execution_role -->
<g id="edge14" class="edge">
<title>aws_iam_role_policy_attachment.canvas_fullaccess_attachment&#45;&gt;aws_iam_role.sagemaker_jupyterlab_execution_role</title>
<path fill="none" stroke="black" d="M480.78,-857.17C459.72,-852.94 438.94,-847.35 419.5,-840 338.08,-809.23 259.12,-741.71 219.37,-704.28"/>
<polygon fill="black" stroke="black" points="221.78,-701.75 212.13,-697.38 216.95,-706.82 221.78,-701.75"/>
</g>
<!-- aws_iam_role_policy_attachment.jupyterlab_common_job_management_attachment -->
<g id="node19" class="node">
<title>aws_iam_role_policy_attachment.jupyterlab_common_job_management_attachment</title>
<polygon fill="none" stroke="black" points="947.75,-561 419.5,-561 419.5,-525 947.75,-525 947.75,-561"/>
<text xml:space="preserve" text-anchor="middle" x="683.62" y="-537.2" font-family="sans-serif" font-size="14.00">aws_iam_role_policy_attachment.jupyterlab_common_job_management_attachment</text>
</g>
<!-- aws_iam_role_policy_attachment.jupyterlab_common_job_management_attachment&#45;&gt;aws_iam_policy.jupyterlab_common_job_management -->
<g id="edge15" class="edge">
<title>aws_iam_role_policy_attachment.jupyterlab_common_job_management_attachment&#45;&gt;aws_iam_policy.jupyterlab_common_job_management</title>
<path fill="none" stroke="black" d="M419.05,-543C404.98,-543 391,-543 377.28,-543"/>
<polygon fill="black" stroke="black" points="377.35,-539.5 367.35,-543 377.35,-546.5 377.35,-539.5"/>
</g>
<!-- aws_iam_role_policy_attachment.jupyterlab_common_job_management_attachment&#45;&gt;aws_iam_role.sagemaker_jupyterlab_execution_role -->
<g id="edge16" class="edge">
<title>aws_iam_role_policy_attachment.jupyterlab_common_job_management_attachment&#45;&gt;aws_iam_role.sagemaker_jupyterlab_execution_role</title>
<path fill="none" stroke="black" d="M454.58,-561.49C442.64,-563.98 430.89,-566.81 419.5,-570 350.36,-589.39 276.35,-628.52 232.34,-653.97"/>
<polygon fill="black" stroke="black" points="230.79,-650.82 223.92,-658.89 234.32,-656.87 230.79,-650.82"/>
</g>
<!-- aws_iam_role_policy_attachment.jupyterlab_efs_access_attachment -->
<g id="node20" class="node">
<title>aws_iam_role_policy_attachment.jupyterlab_efs_access_attachment</title>
<polygon fill="none" stroke="black" points="1973.75,-589 1544.5,-589 1544.5,-553 1973.75,-553 1973.75,-589"/>
<text xml:space="preserve" text-anchor="middle" x="1759.12" y="-565.2" font-family="sans-serif" font-size="14.00">aws_iam_role_policy_attachment.jupyterlab_efs_access_attachment</text>
</g>
<!-- aws_iam_role_policy_attachment.jupyterlab_efs_access_attachment&#45;&gt;aws_iam_policy.jupyterlab_efs_access -->
<g id="edge17" class="edge">
<title>aws_iam_role_policy_attachment.jupyterlab_efs_access_attachment&#45;&gt;aws_iam_policy.jupyterlab_efs_access</title>
<path fill="none" stroke="black" d="M1544.18,-571C1533.78,-571 1523.48,-571 1513.4,-571"/>
<polygon fill="black" stroke="black" points="1513.65,-567.5 1503.65,-571 1513.65,-574.5 1513.65,-567.5"/>
</g>
<!-- aws_iam_role_policy_attachment.jupyterlab_license_cloudwatch_attachment -->
<g id="node21" class="node">
<title>aws_iam_role_policy_attachment.jupyterlab_license_cloudwatch_attachment</title>
<polygon fill="none" stroke="black" points="923,-507 444.25,-507 444.25,-471 923,-471 923,-507"/>
<text xml:space="preserve" text-anchor="middle" x="683.62" y="-483.2" font-family="sans-serif" font-size="14.00">aws_iam_role_policy_attachment.jupyterlab_license_cloudwatch_attachment</text>
</g>
<!-- aws_iam_role_policy_attachment.jupyterlab_license_cloudwatch_attachment&#45;&gt;aws_iam_policy.jupyterlab_license_cloudwatch -->
<g id="edge18" class="edge">
<title>aws_iam_role_policy_attachment.jupyterlab_license_cloudwatch_attachment&#45;&gt;aws_iam_policy.jupyterlab_license_cloudwatch</title>
<path fill="none" stroke="black" d="M443.79,-489C412.75,-489 381.57,-489 352.27,-489"/>
<polygon fill="black" stroke="black" points="352.64,-485.5 342.64,-489 352.64,-492.5 352.64,-485.5"/>
</g>
<!-- aws_iam_role_policy_attachment.jupyterlab_license_cloudwatch_attachment&#45;&gt;aws_iam_role.sagemaker_jupyterlab_execution_role -->
<g id="edge19" class="edge">
<title>aws_iam_role_policy_attachment.jupyterlab_license_cloudwatch_attachment&#45;&gt;aws_iam_role.sagemaker_jupyterlab_execution_role</title>
<path fill="none" stroke="black" d="M443.8,-503.58C435.4,-507.2 427.27,-511.32 419.5,-516 394.8,-530.89 404.62,-550.36 383.5,-570 343.76,-606.95 289.11,-636.24 248.49,-654.95"/>
<polygon fill="black" stroke="black" points="247.27,-651.66 239.6,-658.96 250.16,-658.03 247.27,-651.66"/>
</g>
<!-- aws_iam_role_policy_attachment.jupyterlab_s3_access_attachment -->
<g id="node22" class="node">
<title>aws_iam_role_policy_attachment.jupyterlab_s3_access_attachment</title>
<polygon fill="none" stroke="black" points="896.38,-453 470.88,-453 470.88,-417 896.38,-417 896.38,-453"/>
<text xml:space="preserve" text-anchor="middle" x="683.62" y="-429.2" font-family="sans-serif" font-size="14.00">aws_iam_role_policy_attachment.jupyterlab_s3_access_attachment</text>
</g>
<!-- aws_iam_role_policy_attachment.jupyterlab_s3_access_attachment&#45;&gt;aws_iam_policy.jupyterlab_s3_access -->
<g id="edge20" class="edge">
<title>aws_iam_role_policy_attachment.jupyterlab_s3_access_attachment&#45;&gt;aws_iam_policy.jupyterlab_s3_access</title>
<path fill="none" stroke="black" d="M470.61,-435C421.49,-435 370.57,-435 325.94,-435"/>
<polygon fill="black" stroke="black" points="325.95,-431.5 315.95,-435 325.95,-438.5 325.95,-431.5"/>
</g>
<!-- aws_iam_role_policy_attachment.jupyterlab_s3_access_attachment&#45;&gt;aws_iam_role.sagemaker_jupyterlab_execution_role -->
<g id="edge21" class="edge">
<title>aws_iam_role_policy_attachment.jupyterlab_s3_access_attachment&#45;&gt;aws_iam_role.sagemaker_jupyterlab_execution_role</title>
<path fill="none" stroke="black" d="M470.62,-434.55C452.15,-440.9 434.73,-449.79 419.5,-462 380.02,-493.64 415.66,-530.94 383.5,-570 350.68,-609.87 299.07,-637.81 257.8,-655.28"/>
<polygon fill="black" stroke="black" points="256.59,-651.99 248.67,-659.02 259.25,-658.46 256.59,-651.99"/>
</g>
<!-- aws_iam_role_policy_attachment.sagemaker_fullaccess_attachment -->
<g id="node23" class="node">
<title>aws_iam_role_policy_attachment.sagemaker_fullaccess_attachment</title>
<polygon fill="none" stroke="black" points="898.62,-831 468.62,-831 468.62,-795 898.62,-795 898.62,-831"/>
<text xml:space="preserve" text-anchor="middle" x="683.62" y="-807.2" font-family="sans-serif" font-size="14.00">aws_iam_role_policy_attachment.sagemaker_fullaccess_attachment</text>
</g>
<!-- aws_iam_role_policy_attachment.sagemaker_fullaccess_attachment&#45;&gt;aws_iam_role.sagemaker_jupyterlab_execution_role -->
<g id="edge22" class="edge">
<title>aws_iam_role_policy_attachment.sagemaker_fullaccess_attachment&#45;&gt;aws_iam_role.sagemaker_jupyterlab_execution_role</title>
<path fill="none" stroke="black" d="M468.21,-797.21C451.6,-794.1 435.2,-790.4 419.5,-786 350.36,-766.61 276.35,-727.48 232.34,-702.03"/>
<polygon fill="black" stroke="black" points="234.32,-699.13 223.92,-697.11 230.79,-705.18 234.32,-699.13"/>
</g>
<!-- aws_iam_role_policy_attachment.studio_app_permissions_attachment -->
<g id="node24" class="node">
<title>aws_iam_role_policy_attachment.studio_app_permissions_attachment</title>
<polygon fill="none" stroke="black" points="904.62,-939 462.62,-939 462.62,-903 904.62,-903 904.62,-939"/>
<text xml:space="preserve" text-anchor="middle" x="683.62" y="-915.2" font-family="sans-serif" font-size="14.00">aws_iam_role_policy_attachment.studio_app_permissions_attachment</text>
</g>
<!-- aws_iam_role_policy_attachment.studio_app_permissions_attachment&#45;&gt;data.aws_iam_policy.sm_studio_app_permissions_jupyterlab -->
<g id="edge23" class="edge">
<title>aws_iam_role_policy_attachment.studio_app_permissions_attachment&#45;&gt;data.aws_iam_policy.sm_studio_app_permissions_jupyterlab</title>
<path fill="none" stroke="black" d="M462.41,-921C440.11,-921 417.55,-921 395.45,-921"/>
<polygon fill="black" stroke="black" points="395.46,-917.5 385.46,-921 395.46,-924.5 395.46,-917.5"/>
</g>
<!-- aws_iam_role_policy_attachment.studio_app_permissions_attachment&#45;&gt;aws_iam_role.sagemaker_jupyterlab_execution_role -->
<g id="edge24" class="edge">
<title>aws_iam_role_policy_attachment.studio_app_permissions_attachment&#45;&gt;aws_iam_role.sagemaker_jupyterlab_execution_role</title>
<path fill="none" stroke="black" d="M462.14,-909.47C447.41,-905.34 433.06,-900.24 419.5,-894 325.95,-850.9 246.68,-753.3 211.79,-705.47"/>
<polygon fill="black" stroke="black" points="214.78,-703.63 206.1,-697.55 209.09,-707.72 214.78,-703.63"/>
</g>
<!-- aws_vpc.application_vpc -->
<g id="node44" class="node">
<title>aws_vpc.application_vpc</title>
<polygon fill="none" stroke="black" points="274.38,-277 109.12,-277 109.12,-241 274.38,-241 274.38,-277"/>
<text xml:space="preserve" text-anchor="middle" x="191.75" y="-253.2" font-family="sans-serif" font-size="14.00">aws_vpc.application_vpc</text>
</g>
<!-- aws_internet_gateway.main&#45;&gt;aws_vpc.application_vpc -->
<g id="edge25" class="edge">
<title>aws_internet_gateway.main&#45;&gt;aws_vpc.application_vpc</title>
<path fill="none" stroke="black" d="M591.63,-170.18C540.83,-179 476.48,-190.78 419.5,-203 370.9,-213.42 316.85,-226.7 273.72,-237.72"/>
<polygon fill="black" stroke="black" points="273,-234.29 264.18,-240.16 274.74,-241.07 273,-234.29"/>
</g>
<!-- aws_kms_alias.efs_kms_alias -->
<g id="node26" class="node">
<title>aws_kms_alias.efs_kms_alias</title>
<polygon fill="none" stroke="black" points="1196.25,-669 998,-669 998,-633 1196.25,-633 1196.25,-669"/>
<text xml:space="preserve" text-anchor="middle" x="1097.12" y="-645.2" font-family="sans-serif" font-size="14.00">aws_kms_alias.efs_kms_alias</text>
</g>
<!-- aws_kms_alias.efs_kms_alias&#45;&gt;aws_kms_key.efs_kms -->
<g id="edge26" class="edge">
<title>aws_kms_alias.efs_kms_alias&#45;&gt;aws_kms_key.efs_kms</title>
<path fill="none" stroke="black" d="M997.56,-651C929.23,-651 839.02,-651 773.02,-651"/>
<polygon fill="black" stroke="black" points="773.33,-647.5 763.33,-651 773.33,-654.5 773.33,-647.5"/>
</g>
<!-- aws_kms_key.efs_kms&#45;&gt;aws_iam_role.sagemaker_jupyterlab_execution_role -->
<g id="edge27" class="edge">
<title>aws_kms_key.efs_kms&#45;&gt;aws_iam_role.sagemaker_jupyterlab_execution_role</title>
<path fill="none" stroke="black" d="M605.54,-655.25C542.43,-658.73 450.67,-663.78 369.68,-668.25"/>
<polygon fill="black" stroke="black" points="369.63,-664.75 359.84,-668.79 370.02,-671.73 369.63,-664.75"/>
</g>
<!-- aws_nat_gateway.nat_1 -->
<g id="node28" class="node">
<title>aws_nat_gateway.nat_1</title>
<polygon fill="none" stroke="black" points="1457.88,-81 1297.12,-81 1297.12,-45 1457.88,-45 1457.88,-81"/>
<text xml:space="preserve" text-anchor="middle" x="1377.5" y="-57.2" font-family="sans-serif" font-size="14.00">aws_nat_gateway.nat_1</text>
</g>
<!-- aws_nat_gateway.nat_1&#45;&gt;aws_eip.nat_1 -->
<g id="edge28" class="edge">
<title>aws_nat_gateway.nat_1&#45;&gt;aws_eip.nat_1</title>
<path fill="none" stroke="black" d="M1296.73,-73.89C1253.35,-79.81 1200.5,-87.03 1160.22,-92.52"/>
<polygon fill="black" stroke="black" points="1159.88,-89.04 1150.45,-93.86 1160.83,-95.97 1159.88,-89.04"/>
</g>
<!-- aws_subnet.public_subnet_1 -->
<g id="node42" class="node">
<title>aws_subnet.public_subnet_1</title>
<polygon fill="none" stroke="black" points="1192.12,-65 1002.12,-65 1002.12,-29 1192.12,-29 1192.12,-65"/>
<text xml:space="preserve" text-anchor="middle" x="1097.12" y="-41.2" font-family="sans-serif" font-size="14.00">aws_subnet.public_subnet_1</text>
</g>
<!-- aws_nat_gateway.nat_1&#45;&gt;aws_subnet.public_subnet_1 -->
<g id="edge29" class="edge">
<title>aws_nat_gateway.nat_1&#45;&gt;aws_subnet.public_subnet_1</title>
<path fill="none" stroke="black" d="M1296.73,-58.42C1267.75,-56.75 1234.55,-54.84 1203.69,-53.07"/>
<polygon fill="black" stroke="black" points="1204.13,-49.59 1193.95,-52.51 1203.73,-56.58 1204.13,-49.59"/>
</g>
<!-- aws_route_table.private_1 -->
<g id="node29" class="node">
<title>aws_route_table.private_1</title>
<polygon fill="none" stroke="black" points="1846.25,-148 1672,-148 1672,-112 1846.25,-112 1846.25,-148"/>
<text xml:space="preserve" text-anchor="middle" x="1759.12" y="-124.2" font-family="sans-serif" font-size="14.00">aws_route_table.private_1</text>
</g>
<!-- aws_route_table.private_1&#45;&gt;aws_nat_gateway.nat_1 -->
<g id="edge30" class="edge">
<title>aws_route_table.private_1&#45;&gt;aws_nat_gateway.nat_1</title>
<path fill="none" stroke="black" d="M1671.59,-123.44C1632.42,-119.36 1585.75,-112.93 1544.5,-103 1527.96,-99.02 1524.87,-94.63 1508.5,-90 1495.94,-86.45 1482.57,-83.14 1469.37,-80.15"/>
<polygon fill="black" stroke="black" points="1470.34,-76.78 1459.82,-78.05 1468.83,-83.62 1470.34,-76.78"/>
</g>
<!-- aws_route_table.private_2 -->
<g id="node30" class="node">
<title>aws_route_table.private_2</title>
<polygon fill="none" stroke="black" points="1846.25,-94 1672,-94 1672,-58 1846.25,-58 1846.25,-94"/>
<text xml:space="preserve" text-anchor="middle" x="1759.12" y="-70.2" font-family="sans-serif" font-size="14.00">aws_route_table.private_2</text>
</g>
<!-- aws_route_table.private_2&#45;&gt;aws_nat_gateway.nat_1 -->
<g id="edge31" class="edge">
<title>aws_route_table.private_2&#45;&gt;aws_nat_gateway.nat_1</title>
<path fill="none" stroke="black" d="M1671.51,-73.03C1611.15,-70.97 1530.78,-68.21 1469.49,-66.12"/>
<polygon fill="black" stroke="black" points="1469.9,-62.63 1459.78,-65.78 1469.66,-69.62 1469.9,-62.63"/>
</g>
<!-- aws_route_table.public -->
<g id="node31" class="node">
<title>aws_route_table.public</title>
<polygon fill="none" stroke="black" points="1174.12,-173 1020.12,-173 1020.12,-137 1174.12,-137 1174.12,-173"/>
<text xml:space="preserve" text-anchor="middle" x="1097.12" y="-149.2" font-family="sans-serif" font-size="14.00">aws_route_table.public</text>
</g>
<!-- aws_route_table.public&#45;&gt;aws_internet_gateway.main -->
<g id="edge32" class="edge">
<title>aws_route_table.public&#45;&gt;aws_internet_gateway.main</title>
<path fill="none" stroke="black" d="M1019.69,-155C954.16,-155 859.21,-155 787.11,-155"/>
<polygon fill="black" stroke="black" points="787.25,-151.5 777.25,-155 787.25,-158.5 787.25,-151.5"/>
</g>
<!-- aws_route_table_association.private_1 -->
<g id="node32" class="node">
<title>aws_route_table_association.private_1</title>
<polygon fill="none" stroke="black" points="2259,-349 2009.75,-349 2009.75,-313 2259,-313 2259,-349"/>
<text xml:space="preserve" text-anchor="middle" x="2134.38" y="-325.2" font-family="sans-serif" font-size="14.00">aws_route_table_association.private_1</text>
</g>
<!-- aws_route_table_association.private_1&#45;&gt;aws_route_table.private_1 -->
<g id="edge33" class="edge">
<title>aws_route_table_association.private_1&#45;&gt;aws_route_table.private_1</title>
<path fill="none" stroke="black" d="M2099.26,-312.63C2031.46,-276.12 1879.79,-194.44 1804.41,-153.85"/>
<polygon fill="black" stroke="black" points="1806.09,-150.78 1795.63,-149.12 1802.77,-156.94 1806.09,-150.78"/>
</g>
<!-- aws_route_table_association.private_1&#45;&gt;aws_subnet.private_subnet_1 -->
<g id="edge34" class="edge">
<title>aws_route_table_association.private_1&#45;&gt;aws_subnet.private_subnet_1</title>
<path fill="none" stroke="black" d="M2032.55,-349.47C1867.92,-377.19 1531.19,-423.69 1246.5,-398 1230.03,-396.51 1212.65,-394.12 1195.82,-391.35"/>
<polygon fill="black" stroke="black" points="1196.79,-387.96 1186.35,-389.74 1195.62,-394.87 1196.79,-387.96"/>
</g>
<!-- aws_route_table_association.private_2 -->
<g id="node33" class="node">
<title>aws_route_table_association.private_2</title>
<polygon fill="none" stroke="black" points="2259,-210 2009.75,-210 2009.75,-174 2259,-174 2259,-210"/>
<text xml:space="preserve" text-anchor="middle" x="2134.38" y="-186.2" font-family="sans-serif" font-size="14.00">aws_route_table_association.private_2</text>
</g>
<!-- aws_route_table_association.private_2&#45;&gt;aws_route_table.private_2 -->
<g id="edge35" class="edge">
<title>aws_route_table_association.private_2&#45;&gt;aws_route_table.private_2</title>
<path fill="none" stroke="black" d="M2049.41,-173.58C2035.41,-168.31 2021.6,-161.57 2009.75,-153 1987.56,-136.95 1997.29,-116.99 1973.75,-103 1939.31,-82.53 1896.27,-74.47 1857.86,-72.01"/>
<polygon fill="black" stroke="black" points="1858.31,-68.53 1848.14,-71.52 1857.95,-75.52 1858.31,-68.53"/>
</g>
<!-- aws_route_table_association.private_2&#45;&gt;aws_subnet.private_subnet_2 -->
<g id="edge36" class="edge">
<title>aws_route_table_association.private_2&#45;&gt;aws_subnet.private_subnet_2</title>
<path fill="none" stroke="black" d="M2009.54,-192.02C1781.2,-192.94 1311.11,-199.34 1246.5,-236 1221.41,-250.24 1234.15,-273.49 1210.5,-290 1208.71,-291.25 1206.87,-292.44 1204.99,-293.58"/>
<polygon fill="black" stroke="black" points="1203.73,-290.28 1196.58,-298.1 1207.04,-296.45 1203.73,-290.28"/>
</g>
<!-- aws_route_table_association.public_1 -->
<g id="node34" class="node">
<title>aws_route_table_association.public_1</title>
<polygon fill="none" stroke="black" points="1499.5,-135 1255.5,-135 1255.5,-99 1499.5,-99 1499.5,-135"/>
<text xml:space="preserve" text-anchor="middle" x="1377.5" y="-111.2" font-family="sans-serif" font-size="14.00">aws_route_table_association.public_1</text>
</g>
<!-- aws_route_table_association.public_1&#45;&gt;aws_route_table.public -->
<g id="edge37" class="edge">
<title>aws_route_table_association.public_1&#45;&gt;aws_route_table.public</title>
<path fill="none" stroke="black" d="M1255.21,-133.56C1231.88,-136.74 1207.87,-140.02 1185.85,-143.02"/>
<polygon fill="black" stroke="black" points="1185.47,-139.54 1176.03,-144.36 1186.42,-146.48 1185.47,-139.54"/>
</g>
<!-- aws_route_table_association.public_1&#45;&gt;aws_subnet.public_subnet_1 -->
<g id="edge38" class="edge">
<title>aws_route_table_association.public_1&#45;&gt;aws_subnet.public_subnet_1</title>
<path fill="none" stroke="black" d="M1276.56,-98.51C1266.33,-95.95 1256.15,-93.11 1246.5,-90 1229.83,-84.63 1227.08,-79.62 1210.5,-74 1204.86,-72.09 1199.01,-70.25 1193.09,-68.51"/>
<polygon fill="black" stroke="black" points="1194.4,-65.24 1183.82,-65.88 1192.49,-71.98 1194.4,-65.24"/>
</g>
<!-- aws_route_table_association.public_2 -->
<g id="node35" class="node">
<title>aws_route_table_association.public_2</title>
<polygon fill="none" stroke="black" points="1499.5,-189 1255.5,-189 1255.5,-153 1499.5,-153 1499.5,-189"/>
<text xml:space="preserve" text-anchor="middle" x="1377.5" y="-165.2" font-family="sans-serif" font-size="14.00">aws_route_table_association.public_2</text>
</g>
<!-- aws_route_table_association.public_2&#45;&gt;aws_route_table.public -->
<g id="edge39" class="edge">
<title>aws_route_table_association.public_2&#45;&gt;aws_route_table.public</title>
<path fill="none" stroke="black" d="M1255.21,-164.03C1231.88,-162.69 1207.87,-161.31 1185.85,-160.04"/>
<polygon fill="black" stroke="black" points="1186.23,-156.56 1176.05,-159.48 1185.83,-163.55 1186.23,-156.56"/>
</g>
<!-- aws_subnet.public_subnet_2 -->
<g id="node43" class="node">
<title>aws_subnet.public_subnet_2</title>
<polygon fill="none" stroke="black" points="1192.12,-227 1002.12,-227 1002.12,-191 1192.12,-191 1192.12,-227"/>
<text xml:space="preserve" text-anchor="middle" x="1097.12" y="-203.2" font-family="sans-serif" font-size="14.00">aws_subnet.public_subnet_2</text>
</g>
<!-- aws_route_table_association.public_2&#45;&gt;aws_subnet.public_subnet_2 -->
<g id="edge40" class="edge">
<title>aws_route_table_association.public_2&#45;&gt;aws_subnet.public_subnet_2</title>
<path fill="none" stroke="black" d="M1255.21,-187.56C1237.9,-189.92 1220.22,-192.33 1203.26,-194.65"/>
<polygon fill="black" stroke="black" points="1203.16,-191.13 1193.72,-195.95 1204.11,-198.07 1203.16,-191.13"/>
</g>
<!-- aws_sagemaker_domain.jupyterlab_domain -->
<g id="node36" class="node">
<title>aws_sagemaker_domain.jupyterlab_domain</title>
<polygon fill="none" stroke="black" points="1900.25,-508 1618,-508 1618,-472 1900.25,-472 1900.25,-508"/>
<text xml:space="preserve" text-anchor="middle" x="1759.12" y="-484.2" font-family="sans-serif" font-size="14.00">aws_sagemaker_domain.jupyterlab_domain</text>
</g>
<!-- aws_sagemaker_domain.jupyterlab_domain&#45;&gt;aws_efs_mount_target.shared_efs_mt_1 -->
<g id="edge41" class="edge">
<title>aws_sagemaker_domain.jupyterlab_domain&#45;&gt;aws_efs_mount_target.shared_efs_mt_1</title>
<path fill="none" stroke="black" d="M1617.58,-500C1585.76,-502.26 1551.95,-504.66 1520.09,-506.93"/>
<polygon fill="black" stroke="black" points="1520.14,-503.42 1510.41,-507.62 1520.64,-510.4 1520.14,-503.42"/>
</g>
<!-- aws_sagemaker_domain.jupyterlab_domain&#45;&gt;aws_efs_mount_target.shared_efs_mt_2 -->
<g id="edge42" class="edge">
<title>aws_sagemaker_domain.jupyterlab_domain&#45;&gt;aws_efs_mount_target.shared_efs_mt_2</title>
<path fill="none" stroke="black" d="M1617.58,-480C1585.76,-477.74 1551.95,-475.34 1520.09,-473.07"/>
<polygon fill="black" stroke="black" points="1520.64,-469.6 1510.41,-472.38 1520.14,-476.58 1520.64,-469.6"/>
</g>
<!-- aws_security_group.sagemaker_jupyterlab_sg -->
<g id="node38" class="node">
<title>aws_security_group.sagemaker_jupyterlab_sg</title>
<polygon fill="none" stroke="black" points="831.12,-399 536.12,-399 536.12,-363 831.12,-363 831.12,-399"/>
<text xml:space="preserve" text-anchor="middle" x="683.62" y="-375.2" font-family="sans-serif" font-size="14.00">aws_security_group.sagemaker_jupyterlab_sg</text>
</g>
<!-- aws_security_group.efs_nfs_sg&#45;&gt;aws_security_group.sagemaker_jupyterlab_sg -->
<g id="edge43" class="edge">
<title>aws_security_group.efs_nfs_sg&#45;&gt;aws_security_group.sagemaker_jupyterlab_sg</title>
<path fill="none" stroke="black" d="M1055.1,-444.59C1025.78,-432.24 985.08,-416.69 947.75,-408 914.15,-400.18 877.61,-394.63 842.76,-390.68"/>
<polygon fill="black" stroke="black" points="843.33,-387.22 833.01,-389.62 842.57,-394.18 843.33,-387.22"/>
</g>
<!-- aws_security_group.sagemaker_jupyterlab_sg&#45;&gt;aws_vpc.application_vpc -->
<g id="edge44" class="edge">
<title>aws_security_group.sagemaker_jupyterlab_sg&#45;&gt;aws_vpc.application_vpc</title>
<path fill="none" stroke="black" d="M535.94,-369.91C497.67,-365.19 456.74,-358.49 419.5,-349 355.67,-332.74 285.7,-303.02 240.61,-282.19"/>
<polygon fill="black" stroke="black" points="242.18,-279.06 231.64,-278.01 239.22,-285.4 242.18,-279.06"/>
</g>
<!-- aws_security_group.vpc_endpoints -->
<g id="node39" class="node">
<title>aws_security_group.vpc_endpoints</title>
<polygon fill="none" stroke="black" points="1210.5,-281 983.75,-281 983.75,-245 1210.5,-245 1210.5,-281"/>
<text xml:space="preserve" text-anchor="middle" x="1097.12" y="-257.2" font-family="sans-serif" font-size="14.00">aws_security_group.vpc_endpoints</text>
</g>
<!-- aws_security_group.vpc_endpoints&#45;&gt;aws_vpc.application_vpc -->
<g id="edge45" class="edge">
<title>aws_security_group.vpc_endpoints&#45;&gt;aws_vpc.application_vpc</title>
<path fill="none" stroke="black" d="M983.54,-262.5C803.31,-261.7 453.34,-260.15 286.11,-259.41"/>
<polygon fill="black" stroke="black" points="286.16,-255.91 276.14,-259.37 286.13,-262.91 286.16,-255.91"/>
</g>
<!-- aws_subnet.private_subnet_1&#45;&gt;aws_vpc.application_vpc -->
<g id="edge46" class="edge">
<title>aws_subnet.private_subnet_1&#45;&gt;aws_vpc.application_vpc</title>
<path fill="none" stroke="black" d="M999.19,-359.59C982.06,-357.66 964.38,-355.72 947.75,-354 713.22,-329.69 652.77,-339.38 419.5,-305 374.64,-298.39 325.24,-288.66 284.04,-279.85"/>
<polygon fill="black" stroke="black" points="284.91,-276.46 274.4,-277.78 283.44,-283.3 284.91,-276.46"/>
</g>
<!-- aws_subnet.private_subnet_2&#45;&gt;aws_vpc.application_vpc -->
<g id="edge47" class="edge">
<title>aws_subnet.private_subnet_2&#45;&gt;aws_vpc.application_vpc</title>
<path fill="none" stroke="black" d="M999.19,-311.24C867.8,-303.38 625.9,-288.69 419.5,-275 375.68,-272.09 327.11,-268.69 286.19,-265.77"/>
<polygon fill="black" stroke="black" points="286.6,-262.29 276.38,-265.07 286.1,-269.27 286.6,-262.29"/>
</g>
<!-- aws_subnet.public_subnet_1&#45;&gt;aws_vpc.application_vpc -->
<g id="edge48" class="edge">
<title>aws_subnet.public_subnet_1&#45;&gt;aws_vpc.application_vpc</title>
<path fill="none" stroke="black" d="M1001.88,-46.44C868.72,-48.27 619.44,-61.41 419.5,-128 345.27,-152.72 268.37,-203.41 225.94,-233.98"/>
<polygon fill="black" stroke="black" points="223.91,-231.12 217.89,-239.84 228.03,-236.78 223.91,-231.12"/>
</g>
<!-- aws_subnet.public_subnet_2&#45;&gt;aws_vpc.application_vpc -->
<g id="edge49" class="edge">
<title>aws_subnet.public_subnet_2&#45;&gt;aws_vpc.application_vpc</title>
<path fill="none" stroke="black" d="M1002,-214.21C828.31,-223.82 459.33,-244.25 286.17,-253.83"/>
<polygon fill="black" stroke="black" points="286.1,-250.33 276.31,-254.38 286.48,-257.32 286.1,-250.33"/>
</g>
<!-- aws_vpc_endpoint.cloudwatch_logs -->
<g id="node45" class="node">
<title>aws_vpc_endpoint.cloudwatch_logs</title>
<polygon fill="none" stroke="black" points="1493.12,-281 1261.88,-281 1261.88,-245 1493.12,-245 1493.12,-281"/>
<text xml:space="preserve" text-anchor="middle" x="1377.5" y="-257.2" font-family="sans-serif" font-size="14.00">aws_vpc_endpoint.cloudwatch_logs</text>
</g>
<!-- aws_vpc_endpoint.cloudwatch_logs&#45;&gt;aws_security_group.vpc_endpoints -->
<g id="edge50" class="edge">
<title>aws_vpc_endpoint.cloudwatch_logs&#45;&gt;aws_security_group.vpc_endpoints</title>
<path fill="none" stroke="black" d="M1261.67,-263C1248.69,-263 1235.43,-263 1222.34,-263"/>
<polygon fill="black" stroke="black" points="1222.41,-259.5 1212.41,-263 1222.41,-266.5 1222.41,-259.5"/>
</g>
<!-- aws_vpc_endpoint.cloudwatch_logs&#45;&gt;aws_subnet.private_subnet_1 -->
<g id="edge51" class="edge">
<title>aws_vpc_endpoint.cloudwatch_logs&#45;&gt;aws_subnet.private_subnet_1</title>
<path fill="none" stroke="black" d="M1261.64,-281.4C1256.36,-283.92 1251.28,-286.78 1246.5,-290 1222.59,-306.14 1234.15,-327.49 1210.5,-344 1208.71,-345.25 1206.87,-346.44 1204.99,-347.58"/>
<polygon fill="black" stroke="black" points="1203.73,-344.28 1196.58,-352.1 1207.04,-350.45 1203.73,-344.28"/>
</g>
<!-- aws_vpc_endpoint.cloudwatch_logs&#45;&gt;aws_subnet.private_subnet_2 -->
<g id="edge52" class="edge">
<title>aws_vpc_endpoint.cloudwatch_logs&#45;&gt;aws_subnet.private_subnet_2</title>
<path fill="none" stroke="black" d="M1281.48,-281.43C1256.64,-286.25 1229.72,-291.47 1204.34,-296.4"/>
<polygon fill="black" stroke="black" points="1203.83,-292.93 1194.68,-298.27 1205.16,-299.8 1203.83,-292.93"/>
</g>
<!-- aws_vpc_endpoint.s3 -->
<g id="node46" class="node">
<title>aws_vpc_endpoint.s3</title>
<polygon fill="none" stroke="black" points="2207.25,-144 2061.5,-144 2061.5,-108 2207.25,-108 2207.25,-144"/>
<text xml:space="preserve" text-anchor="middle" x="2134.38" y="-120.2" font-family="sans-serif" font-size="14.00">aws_vpc_endpoint.s3</text>
</g>
<!-- aws_vpc_endpoint.s3&#45;&gt;aws_route_table.private_1 -->
<g id="edge53" class="edge">
<title>aws_vpc_endpoint.s3&#45;&gt;aws_route_table.private_1</title>
<path fill="none" stroke="black" d="M2061.41,-126.77C2003.55,-127.39 1921.7,-128.27 1857.91,-128.95"/>
<polygon fill="black" stroke="black" points="1858.1,-125.45 1848.13,-129.06 1858.17,-132.45 1858.1,-125.45"/>
</g>
<!-- aws_vpc_endpoint.s3&#45;&gt;aws_route_table.private_2 -->
<g id="edge54" class="edge">
<title>aws_vpc_endpoint.s3&#45;&gt;aws_route_table.private_2</title>
<path fill="none" stroke="black" d="M2061.1,-115.31C2033.75,-111.34 2002.33,-106.86 1973.75,-103 1935.9,-97.88 1894.23,-92.55 1857.82,-87.99"/>
<polygon fill="black" stroke="black" points="1858.56,-84.55 1848.2,-86.78 1857.69,-91.5 1858.56,-84.55"/>
</g>
<!-- aws_vpc_endpoint.sagemaker_api -->
<g id="node47" class="node">
<title>aws_vpc_endpoint.sagemaker_api</title>
<polygon fill="none" stroke="black" points="1489.75,-389 1265.25,-389 1265.25,-353 1489.75,-353 1489.75,-389"/>
<text xml:space="preserve" text-anchor="middle" x="1377.5" y="-365.2" font-family="sans-serif" font-size="14.00">aws_vpc_endpoint.sagemaker_api</text>
</g>
<!-- aws_vpc_endpoint.sagemaker_api&#45;&gt;aws_security_group.vpc_endpoints -->
<g id="edge55" class="edge">
<title>aws_vpc_endpoint.sagemaker_api&#45;&gt;aws_security_group.vpc_endpoints</title>
<path fill="none" stroke="black" d="M1264.84,-354.07C1258.41,-351.2 1252.23,-347.87 1246.5,-344 1222.59,-327.86 1234.15,-306.51 1210.5,-290 1208.92,-288.89 1207.29,-287.83 1205.63,-286.82"/>
<polygon fill="black" stroke="black" points="1207.58,-283.89 1197.13,-282.18 1204.23,-290.04 1207.58,-283.89"/>
</g>
<!-- aws_vpc_endpoint.sagemaker_api&#45;&gt;aws_subnet.private_subnet_1 -->
<g id="edge56" class="edge">
<title>aws_vpc_endpoint.sagemaker_api&#45;&gt;aws_subnet.private_subnet_1</title>
<path fill="none" stroke="black" d="M1264.88,-371C1245.62,-371 1225.63,-371 1206.47,-371"/>
<polygon fill="black" stroke="black" points="1206.48,-367.5 1196.48,-371 1206.48,-374.5 1206.48,-367.5"/>
</g>
<!-- aws_vpc_endpoint.sagemaker_api&#45;&gt;aws_subnet.private_subnet_2 -->
<g id="edge57" class="edge">
<title>aws_vpc_endpoint.sagemaker_api&#45;&gt;aws_subnet.private_subnet_2</title>
<path fill="none" stroke="black" d="M1281.48,-352.57C1256.64,-347.75 1229.72,-342.53 1204.34,-337.6"/>
<polygon fill="black" stroke="black" points="1205.16,-334.2 1194.68,-335.73 1203.83,-341.07 1205.16,-334.2"/>
</g>
<!-- aws_vpc_endpoint.sagemaker_runtime -->
<g id="node48" class="node">
<title>aws_vpc_endpoint.sagemaker_runtime</title>
<polygon fill="none" stroke="black" points="1503.62,-335 1251.38,-335 1251.38,-299 1503.62,-299 1503.62,-335"/>
<text xml:space="preserve" text-anchor="middle" x="1377.5" y="-311.2" font-family="sans-serif" font-size="14.00">aws_vpc_endpoint.sagemaker_runtime</text>
</g>
<!-- aws_vpc_endpoint.sagemaker_runtime&#45;&gt;aws_security_group.vpc_endpoints -->
<g id="edge58" class="edge">
<title>aws_vpc_endpoint.sagemaker_runtime&#45;&gt;aws_security_group.vpc_endpoints</title>
<path fill="none" stroke="black" d="M1281.48,-298.57C1256.64,-293.75 1229.72,-288.53 1204.34,-283.6"/>
<polygon fill="black" stroke="black" points="1205.16,-280.2 1194.68,-281.73 1203.83,-287.07 1205.16,-280.2"/>
</g>
<!-- aws_vpc_endpoint.sagemaker_runtime&#45;&gt;aws_subnet.private_subnet_1 -->
<g id="edge59" class="edge">
<title>aws_vpc_endpoint.sagemaker_runtime&#45;&gt;aws_subnet.private_subnet_1</title>
<path fill="none" stroke="black" d="M1281.48,-335.43C1256.64,-340.25 1229.72,-345.47 1204.34,-350.4"/>
<polygon fill="black" stroke="black" points="1203.83,-346.93 1194.68,-352.27 1205.16,-353.8 1203.83,-346.93"/>
</g>
<!-- aws_vpc_endpoint.sagemaker_runtime&#45;&gt;aws_subnet.private_subnet_2 -->
<g id="edge60" class="edge">
<title>aws_vpc_endpoint.sagemaker_runtime&#45;&gt;aws_subnet.private_subnet_2</title>
<path fill="none" stroke="black" d="M1251.16,-317C1236.21,-317 1221.04,-317 1206.36,-317"/>
<polygon fill="black" stroke="black" points="1206.75,-313.5 1196.75,-317 1206.75,-320.5 1206.75,-313.5"/>
</g>
</g>
</svg>
